<svg width="64" height="64" viewBox="0 0 64 64" fill="none" xmlns="http://www.w3.org/2000/svg">
<g clipPath="url(#clip0_112_3)">
<path d="M64 0H0V64H64V0Z" fill="#F5F5F5"/>
<path d="M633 -7954H-1167V402H633V-7954Z" fill="white"/>
<path d="M62.5492 11.848C61.5438 12.2939 60.5101 12.6703 59.4539 12.9758C60.7044 11.5616 61.6578 9.89761 62.2398 8.0767C62.3702 7.66855 62.235 7.22179 61.8995 6.95485C61.5645 6.6877 61.0989 6.6557 60.73 6.87433C58.4869 8.2047 56.0669 9.16078 53.5294 9.71985C50.9733 7.2222 47.5016 5.80078 43.9126 5.80078C36.3369 5.80078 30.1735 11.964 30.1735 19.5395C30.1735 20.1362 30.2113 20.7295 30.286 21.3146C20.8852 20.4892 12.1455 15.8686 6.14397 8.50674C5.93008 8.24434 5.60059 8.10292 5.26325 8.12997C4.9257 8.15639 4.62242 8.34674 4.45189 8.63928C3.23465 10.728 2.59114 13.1168 2.59114 15.5474C2.59114 18.8578 3.77308 21.9988 5.86092 24.4531C5.22608 24.2332 4.61003 23.9584 4.02206 23.632C3.70639 23.4563 3.32116 23.459 3.00756 23.6388C2.69375 23.8186 2.497 24.1494 2.48874 24.5109C2.4873 24.5718 2.4873 24.6327 2.4873 24.6944C2.4873 29.6358 5.14681 34.0847 9.21287 36.5094C8.86356 36.4745 8.51445 36.424 8.16761 36.3577C7.81003 36.2893 7.44234 36.4147 7.20121 36.6874C6.95966 36.9599 6.87976 37.3398 6.99104 37.6866C8.49607 42.3855 12.371 45.8417 17.0553 46.8954C13.1701 49.3288 8.72709 50.6035 4.06294 50.6035C3.08972 50.6035 2.11094 50.5463 1.153 50.4329C0.67713 50.3764 0.22211 50.6573 0.0600459 51.1099C-0.102019 51.5626 0.0697492 52.0674 0.474601 52.3269C6.46645 56.1688 13.3948 58.1994 20.5101 58.1994C34.498 58.1994 43.2485 51.6033 48.1259 46.0698C54.208 39.17 57.6962 30.0372 57.6962 21.0134C57.6962 20.6364 57.6904 20.2557 57.6788 19.8762C60.0784 18.0683 62.1444 15.8804 63.8255 13.3656C64.0809 12.9836 64.0532 12.4789 63.7574 12.1273C63.462 11.7755 62.9696 11.6617 62.5492 11.848Z" fill="#1363DF"/>
</g>
<defs>
<clipPath id="clip0_112_3">
<rect width="64" height="64" fill="white"/>
</clipPath>
</defs>
</svg>
